<?xml version="1.0" encoding="UTF-8" standalone="no"?>
<svg
   xmlns:dc="http://purl.org/dc/elements/1.1/"
   xmlns:cc="http://creativecommons.org/ns#"
   xmlns:rdf="http://www.w3.org/1999/02/22-rdf-syntax-ns#"
   xmlns:svg="http://www.w3.org/2000/svg"
   xmlns="http://www.w3.org/2000/svg"
   id="svg8"
   version="1.1"
   viewBox="0 0 36.846493 37.249199"
   height="37.249199mm"
   width="36.846493mm">
  <title
     id="title881">backgroundTest</title>
  <defs
     id="defs2" />
  <metadata
     id="metadata5">
    <rdf:RDF>
      <cc:Work
         rdf:about="">
        <dc:format>image/svg+xml</dc:format>
        <dc:type
           rdf:resource="http://purl.org/dc/dcmitype/StillImage" />
        <dc:title>backgroundTest</dc:title>
      </cc:Work>
    </rdf:RDF>
  </metadata>
  <g
     transform="translate(-59.886713,-164.98956)"
     id="layer1">
    <rect
       y="48.380955"
       x="37.797619"
       height="179.91667"
       width="90.714287"
       id="rect833"
       style="opacity:0.986;fill:#000000;fill-opacity:1;stroke:#000000;stroke-width:0.811;stroke-linecap:round;stroke-linejoin:round;stroke-miterlimit:4;stroke-dasharray:none" />
    <path
       d="m 74.033653,109.31322 c -0.596424,0.56087 -1.050301,-0.52725 -0.932209,-0.9913 0.320022,-1.25753 1.948074,-1.41125 2.9148,-0.87312 1.729246,0.96259 1.862618,3.32839 0.814036,4.8383 -1.538836,2.21586 -4.727681,2.32804 -6.761809,0.75495 -2.711173,-2.09667 -2.799476,-6.13373 -0.695862,-8.68531 2.647183,-3.2109 7.543019,-3.27405 10.608818,-0.63678 3.713093,3.19409 3.750426,8.95413 0.577689,12.53233 -3.738961,4.21678 -10.366371,4.22794 -14.455827,0.5186 -4.72144,-4.28258 -4.706223,-11.77937 -0.459516,-16.37933 4.825378,-5.226768 13.192908,-5.185034 18.302836,-0.400432 5.732567,5.367602 5.664224,14.606832 0.341342,20.226342 -5.909407,6.23872 -16.021046,6.14371 -22.149845,0.28225 -6.74514,-6.4509 -6.62341,-17.43548 -0.223169,-24.073345 6.992171,-7.251768 18.850107,-7.103287 25.996854,-0.164083 7.758559,7.533248 7.583303,20.264868 0.104996,27.920358 -1.505369,1.54104 -3.254915,2.84014 -5.163234,3.83943"
       id="path835"
       style="fill:#ffce33;fill-rule:evenodd;stroke:#000000;stroke-width:0.264583;fill-opacity:1" />
    <path
       style="fill:#ffce33;fill-rule:evenodd;stroke:#000000;stroke-width:0.264583;fill-opacity:1"
       id="path835-8"
       d="m 56.376331,144.1241 c -0.596423,0.56087 -1.050301,-0.52725 -0.932209,-0.9913 0.320023,-1.25753 1.948074,-1.41125 2.9148,-0.87312 1.729247,0.96259 1.862618,3.32839 0.814036,4.83831 -1.538836,2.21585 -4.727681,2.32803 -6.761809,0.75495 -2.711173,-2.09668 -2.799476,-6.13374 -0.695862,-8.68532 2.647183,-3.2109 7.543019,-3.27404 10.608818,-0.63677 3.713093,3.19408 3.750426,8.95412 0.577689,12.53232 -3.738961,4.21678 -10.366371,4.22794 -14.455827,0.5186 -4.72144,-4.28258 -4.706223,-11.77937 -0.459516,-16.37933 4.825378,-5.22677 13.192908,-5.18503 18.302836,-0.40043 5.732567,5.3676 5.664225,14.60683 0.341343,20.22634 -5.909408,6.23872 -16.021047,6.14371 -22.149846,0.28226 -6.74514,-6.45091 -6.62341,-17.43549 -0.223169,-24.07335 6.992171,-7.25177 18.850107,-7.10329 25.996854,-0.16409 7.758559,7.53325 7.583303,20.26487 0.104996,27.92036 -1.505368,1.54104 -3.254915,2.84014 -5.163234,3.83943" />
    <path
       style="fill:#ffce33;fill-rule:evenodd;stroke:#000000;stroke-width:0.264583;fill-opacity:1"
       id="path835-1"
       d="m 108.76116,150.00401 c -0.59642,0.56088 -1.0503,-0.52725 -0.93221,-0.99129 0.32003,-1.25753 1.94808,-1.41126 2.9148,-0.87312 1.72925,0.96259 1.86262,3.32839 0.81404,4.8383 -1.53884,2.21586 -4.72768,2.32803 -6.76181,0.75495 -2.71117,-2.09667 -2.79948,-6.13374 -0.69586,-8.68531 2.64718,-3.21091 7.54302,-3.27405 10.60882,-0.63678 3.71309,3.19409 3.75042,8.95413 0.57768,12.53232 -3.73896,4.21678 -10.36637,4.22795 -14.45582,0.5186 -4.721442,-4.28258 -4.706225,-11.77937 -0.45952,-16.37933 4.82538,-5.22676 13.19291,-5.18503 18.30284,-0.40043 5.73256,5.3676 5.66422,14.60684 0.34134,20.22634 -5.90941,6.23873 -16.02105,6.14371 -22.149845,0.28226 -6.745141,-6.45091 -6.62341,-17.43549 -0.223169,-24.07335 6.992174,-7.25177 18.850104,-7.10329 25.996854,-0.16408 7.75856,7.53325 7.5833,20.26487 0.105,27.92036 -1.50537,1.54103 -3.25492,2.84013 -5.16324,3.83943" />
    <path
       style="fill:#ffce33;fill-rule:evenodd;stroke:#000000;stroke-width:0.264583;fill-opacity:1"
       id="path835-9"
       d="m 105.82121,83.988441 c -0.59642,0.560874 -1.0503,-0.527252 -0.93221,-0.991295 0.32003,-1.257529 1.94808,-1.411255 2.9148,-0.873122 1.72925,0.962592 1.86262,3.328393 0.81404,4.838304 -1.53884,2.215856 -4.72768,2.328033 -6.76181,0.754949 -2.711173,-2.096673 -2.799475,-6.133734 -0.69586,-8.685313 2.64718,-3.210903 7.54302,-3.274045 10.60882,-0.636776 3.71309,3.194086 3.75042,8.954127 0.57769,12.532323 -3.73897,4.216779 -10.36638,4.227944 -14.455832,0.518602 -4.721439,-4.282582 -4.706222,-11.779373 -0.459516,-16.379332 4.825378,-5.226765 13.192908,-5.18503 18.302838,-0.400429 5.73257,5.3676 5.66422,14.606831 0.34134,20.226341 -5.90941,6.238717 -16.02105,6.143707 -22.149844,0.282256 -6.745141,-6.450908 -6.62341,-17.435488 -0.223169,-24.07335 6.992173,-7.251768 18.850103,-7.103287 25.996853,-0.164083 7.75856,7.533249 7.5833,20.264869 0.105,27.920359 -1.50537,1.541035 -3.25492,2.840135 -5.16324,3.839435" />
    <path
       style="fill:#ffce33;fill-rule:evenodd;stroke:#000000;stroke-width:0.264583;fill-opacity:1"
       id="path835-2"
       d="m 60.652645,69.823158 c -0.596424,0.560874 -1.050301,-0.527252 -0.932209,-0.991295 0.320022,-1.25753 1.948074,-1.411255 2.9148,-0.873123 1.729246,0.962593 1.862618,3.328393 0.814036,4.838305 -1.538836,2.215856 -4.727681,2.328033 -6.761809,0.754949 C 53.97629,71.455321 53.887987,67.41826 55.9916,64.86668 c 2.647183,-3.210902 7.54302,-3.274045 10.608819,-0.636775 3.713093,3.194086 3.750426,8.954127 0.577689,12.532322 -3.738961,4.21678 -10.366371,4.227945 -14.455828,0.518603 -4.721439,-4.282583 -4.706222,-11.779373 -0.459515,-16.379332 4.825378,-5.226765 13.192908,-5.185031 18.302836,-0.400429 5.732567,5.3676 5.664224,14.606831 0.341342,20.226341 -5.909408,6.23872 -16.021047,6.143706 -22.149845,0.282255 -6.74514,-6.450907 -6.62341,-17.435488 -0.223169,-24.073349 6.99217,-7.251768 18.850107,-7.103287 25.996854,-0.164083 7.758559,7.533249 7.583303,20.264869 0.104996,27.920359 -1.505369,1.541036 -3.254915,2.840137 -5.163234,3.839431" />
    <path
       style="fill:#ffce33;fill-rule:evenodd;stroke:#000000;stroke-width:0.264583;fill-opacity:1"
       id="path835-23"
       d="m 76.956078,183.4127 c -0.596424,0.56088 -1.050301,-0.52725 -0.932209,-0.99129 0.320022,-1.25753 1.948074,-1.41126 2.9148,-0.87312 1.729246,0.96259 1.862617,3.32839 0.814035,4.8383 -1.538836,2.21586 -4.72768,2.32803 -6.761809,0.75495 -2.711173,-2.09667 -2.799476,-6.13373 -0.695862,-8.68531 2.647183,-3.21091 7.543019,-3.27405 10.608818,-0.63678 3.713093,3.19409 3.750426,8.95413 0.577689,12.53232 -3.738961,4.21678 -10.366371,4.22795 -14.455827,0.51861 -4.721439,-4.28259 -4.706222,-11.77938 -0.459516,-16.37934 4.825378,-5.22676 13.192908,-5.18503 18.302836,-0.40042 5.732568,5.3676 5.664225,14.60683 0.341343,20.22634 -5.909408,6.23872 -16.021047,6.1437 -22.149845,0.28225 -6.745141,-6.45091 -6.62341,-17.43549 -0.22317,-24.07335 6.992171,-7.25177 18.850107,-7.10329 25.996855,-0.16408 7.758558,7.53325 7.583302,20.26487 0.104996,27.92036 -1.505369,1.54103 -3.254916,2.84014 -5.163235,3.83943" />
  </g>
</svg>
